PathFileType	4	(X/Y/Z)	 control3min.trc
DataRate	CameraRate	NumFrames	NumMarkers	Units	OrigDataRate	OrigDataStartFrame	OrigNumFrames
200	200	8	35	m	200	251	1000
Frame#	Time	C7			LSH			RSH			MAN			RASI			LASI			HIPR			HIPL			RPSI			LPSI			COX			RTHI1			RTHI2			RTHI3			RTHI4			RSHA1			RSHA2			RSHA3			RSHA4			RHEEL			RMET5			RMET1			RTOE			LTHI1			LTHI2			LTHI3			LTHI4			LSHA1			LSHA2			LSHA3			LSHA4			LHEEL			LMET5			LMET1			LTOE			
		X1	Y1	Z1	X2	Y2	Z2	X3	Y3	Z3	X4	Y4	Z4	X5	Y5	Z5	X6	Y6	Z6	X7	Y7	Z7	X8	Y8	Z8	X9	Y9	Z9	X10	Y10	Z10	X11	Y11	Z11	X12	Y12	Z12	X13	Y13	Z13	X14	Y14	Z14	X15	Y15	Z15	X16	Y16	Z16	X17	Y17	Z17	X18	Y18	Z18	X19	Y19	Z19	X20	Y20	Z20	X21	Y21	Z21	X22	Y22	Z22	X23	Y23	Z23	X24	Y24	Z24	X25	Y25	Z25	X26	Y26	Z26	X27	Y27	Z27	X28	Y28	Z28	X29	Y29	Z29	X30	Y30	Z30	X31	Y31	Z31	X32	Y32	Z32	X33	Y33	Z33	X34	Y34	Z34	X35	Y35	Z35	
251	1.2550	-0.000000	0.000000	-0.000000	-0.156668	1.362814	-0.738165	-0.186397	1.335622	-0.386721	-0.108673	1.319615	-0.559878	-0.115460	0.923253	-0.443662	-0.101652	0.925693	-0.680616	-0.172224	0.967926	-0.422622	-0.156938	0.967138	-0.708293	-0.273778	0.953647	-0.513299	-0.264780	0.955538	-0.626931	-0.274037	0.958644	-0.569898	-0.212554	0.715080	-0.405811	-0.185287	0.662244	-0.397980	-0.129537	0.688858	-0.379184	-0.149553	0.746954	-0.384707	-0.225515	0.320484	-0.390727	-0.242386	0.282278	-0.402066	-0.184579	0.264114	-0.399727	-0.171683	0.301890	-0.393370	-0.338140	0.093317	-0.461061	-0.198340	0.030205	-0.388758	-0.165131	0.038229	-0.454123	-0.136386	0.028047	-0.450030	-0.173863	0.731044	-0.739933	-0.152111	0.673478	-0.736061	-0.090059	0.691541	-0.727470	-0.104282	0.749468	-0.731343	-0.212479	0.320454	-0.726343	-0.233597	0.286128	-0.724138	-0.177125	0.260444	-0.713247	-0.162673	0.302067	-0.717707	-0.348974	0.079764	-0.674891	-0.201782	0.029659	-0.721516	-0.166140	0.036584	-0.651610	-0.141021	0.027836	-0.651570	
252	1.2600	-0.000000	0.000000	-0.000000	-0.157243	1.368636	-0.737999	-0.186855	1.341274	-0.386873	-0.109236	1.325050	-0.559995	-0.114341	0.928505	-0.443694	-0.100692	0.930753	-0.680295	-0.170905	0.973507	-0.422586	-0.155889	0.972641	-0.707911	-0.272567	0.959043	-0.512996	-0.263644	0.960893	-0.626547	-0.272970	0.963861	-0.569607	-0.212354	0.720490	-0.405037	-0.185380	0.667495	-0.397281	-0.129315	0.693807	-0.378970	-0.149012	0.751996	-0.384462	-0.226536	0.324480	-0.390185	-0.243113	0.286132	-0.401464	-0.185182	0.268373	-0.398843	-0.172571	0.306270	-0.392556	-0.336966	0.096689	-0.460183	-0.197701	0.030512	-0.388828	-0.164828	0.038093	-0.454148	-0.136433	0.028006	-0.450148	-0.173194	0.736244	-0.740256	-0.151720	0.678594	-0.736348	-0.089665	0.696359	-0.727174	-0.103612	0.754348	-0.731023	-0.213788	0.324550	-0.726846	-0.234577	0.290034	-0.724639	-0.177827	0.264832	-0.714088	-0.163771	0.306579	-0.718498	-0.347520	0.083174	-0.675345	-0.201381	0.029965	-0.721385	-0.166013	0.036548	-0.651537	-0.141075	0.027838	-0.651519	
253	1.2650	-0.000000	0.000000	-0.000000	-0.157823	1.374561	-0.737770	-0.187377	1.347057	-0.387076	-0.109813	1.330719	-0.560085	-0.113222	0.933883	-0.443725	-0.099732	0.935898	-0.679928	-0.169512	0.979301	-0.422539	-0.154789	0.978288	-0.707491	-0.271330	0.964590	-0.512679	-0.262502	0.966399	-0.626158	-0.271877	0.969224	-0.569302	-0.212185	0.726009	-0.404250	-0.185515	0.672862	-0.396521	-0.129148	0.698859	-0.378694	-0.148518	0.757154	-0.384190	-0.227566	0.328558	-0.389608	-0.243845	0.290068	-0.400806	-0.185775	0.272726	-0.397891	-0.173463	0.310740	-0.391674	-0.335596	0.100096	-0.459390	-0.197014	0.030850	-0.388898	-0.164486	0.037965	-0.454182	-0.136486	0.027983	-0.450259	-0.172603	0.741583	-0.740576	-0.151391	0.683838	-0.736666	-0.089332	0.701311	-0.726990	-0.103018	0.759370	-0.730763	-0.215066	0.328753	-0.727454	-0.235525	0.294038	-0.725231	-0.178486	0.269322	-0.715081	-0.164838	0.311200	-0.719448	-0.345917	0.086713	-0.675837	-0.200917	0.030304	-0.721301	-0.165886	0.036512	-0.651481	-0.141140	0.027845	-0.651475	
254	1.2700	-0.000000	0.000000	-0.000000	-0.158397	1.380543	-0.737479	-0.187941	1.352936	-0.387326	-0.110385	1.336570	-0.560152	-0.112120	0.939344	-0.443753	-0.098782	0.941094	-0.679525	-0.168064	0.985248	-0.422490	-0.153639	0.984026	-0.707034	-0.270072	0.970250	-0.512347	-0.261356	0.972011	-0.625790	-0.270749	0.974700	-0.568998	-0.212054	0.731598	-0.403451	-0.185685	0.678306	-0.395707	-0.129033	0.703997	-0.378358	-0.148082	0.762393	-0.383896	-0.228589	0.332691	-0.389006	-0.244577	0.294032	-0.400105	-0.186347	0.277138	-0.396881	-0.174353	0.315264	-0.390735	-0.334016	0.103502	-0.458636	-0.196310	0.031202	-0.388946	-0.164153	0.037861	-0.454181	-0.136548	0.027968	-0.450357	-0.172106	0.747028	-0.740888	-0.151144	0.689183	-0.737020	-0.089074	0.706377	-0.726929	-0.102510	0.764504	-0.730568	-0.216304	0.333007	-0.728150	-0.236423	0.298095	-0.725896	-0.179086	0.273871	-0.716195	-0.165857	0.315883	-0.720535	-0.344168	0.090360	-0.676379	-0.200386	0.030669	-0.721263	-0.165759	0.036478	-0.651443	-0.141216	0.027857	-0.651440	
255	1.2750	-0.000000	0.000000	-0.000000	-0.158960	1.386536	-0.737145	-0.188529	1.358863	-0.387630	-0.110948	1.342565	-0.560192	-0.111042	0.944850	-0.443781	-0.097850	0.946311	-0.679094	-0.166595	0.991275	-0.422445	-0.152446	0.989800	-0.706541	-0.268793	0.975983	-0.512013	-0.260209	0.977687	-0.625439	-0.269601	0.980262	-0.568683	-0.211957	0.737216	-0.402647	-0.185887	0.683812	-0.394862	-0.128973	0.709193	-0.377969	-0.147702	0.767675	-0.383578	-0.229604	0.336829	-0.388389	-0.245291	0.298018	-0.399346	-0.186888	0.281575	-0.395820	-0.175228	0.319809	-0.389741	-0.332223	0.106897	-0.457932	-0.195617	0.031561	-0.388962	-0.163827	0.037800	-0.454139	-0.136621	0.027964	-0.450439	-0.171718	0.752551	-0.741187	-0.150995	0.694604	-0.737411	-0.088904	0.711515	-0.726985	-0.102096	0.769704	-0.730436	-0.217491	0.337274	-0.728930	-0.237259	0.302164	-0.726614	-0.179622	0.278445	-0.717405	-0.166823	0.320596	-0.721732	-0.342274	0.094035	-0.676915	-0.199798	0.031047	-0.721268	-0.165620	0.036450	-0.651422	-0.141300	0.027874	-0.651421	
256	1.2800	-0.000000	0.000000	-0.000000	-0.159506	1.392489	-0.736767	-0.189127	1.364795	-0.388005	-0.111492	1.348606	-0.560225	-0.110001	0.950357	-0.443808	-0.096939	0.951509	-0.678643	-0.165112	0.997321	-0.422399	-0.151220	0.995560	-0.706030	-0.267502	0.981752	-0.511675	-0.259067	0.983395	-0.625107	-0.268437	0.985862	-0.568361	-0.211900	0.742834	-0.401840	-0.186122	0.689325	-0.393987	-0.128960	0.714412	-0.377535	-0.147372	0.772978	-0.383253	-0.230607	0.340943	-0.387770	-0.245994	0.301982	-0.398567	-0.187398	0.286005	-0.394737	-0.176084	0.324341	-0.388707	-0.330231	0.110244	-0.457248	-0.194958	0.031909	-0.388941	-0.163531	0.037786	-0.454042	-0.136704	0.027983	-0.450493	-0.171445	0.758119	-0.741471	-0.150954	0.700064	-0.737830	-0.088829	0.716686	-0.727160	-0.101787	0.774952	-0.730385	-0.218616	0.341517	-0.729764	-0.238023	0.306216	-0.727361	-0.180083	0.283014	-0.718680	-0.167728	0.325301	-0.723016	-0.340234	0.097729	-0.677459	-0.199156	0.031431	-0.721311	-0.165462	0.036433	-0.651416	-0.141390	0.027897	-0.651425	
257	1.2850	-0.000000	0.000000	-0.000000	-0.160025	1.398365	-0.736353	-0.189721	1.370700	-0.388427	-0.112034	1.354641	-0.560238	-0.108991	0.955820	-0.443837	-0.096057	0.956660	-0.678185	-0.163644	1.003331	-0.422357	-0.149974	1.001272	-0.705514	-0.266204	0.987523	-0.511335	-0.257930	0.989093	-0.624806	-0.267257	0.991468	-0.568052	-0.211881	0.748427	-0.401037	-0.186387	0.694818	-0.393088	-0.128990	0.719620	-0.377068	-0.147091	0.778267	-0.382924	-0.231597	0.344991	-0.387181	-0.246672	0.305882	-0.397783	-0.187869	0.290410	-0.393628	-0.176923	0.328848	-0.387665	-0.328042	0.113540	-0.456587	-0.194329	0.032251	-0.388889	-0.163268	0.037820	-0.453888	-0.136794	0.028023	-0.450510	-0.171291	0.763700	-0.741715	-0.151025	0.705538	-0.738270	-0.088853	0.721868	-0.727449	-0.101576	0.780204	-0.730415	-0.219671	0.345721	-0.730622	-0.238709	0.310215	-0.728113	-0.180462	0.287568	-0.719992	-0.168564	0.329974	-0.724357	-0.338049	0.101427	-0.678011	-0.198463	0.031817	-0.721384	-0.165271	0.036441	-0.651430	-0.141479	0.027923	-0.651461	
258	1.2900	-0.000000	0.000000	-0.000000	-0.160541	1.404132	-0.735932	-0.190291	1.376558	-0.388843	-0.112558	1.360544	-0.560258	-0.108009	0.961208	-0.443857	-0.095208	0.961741	-0.677736	-0.162203	1.009246	-0.422320	-0.148729	1.006892	-0.705003	-0.264899	0.993255	-0.511007	-0.256791	0.994747	-0.624513	-0.266069	0.997047	-0.567745	-0.211898	0.753964	-0.400239	-0.186674	0.700266	-0.392184	-0.129053	0.724798	-0.376565	-0.146860	0.783513	-0.382590	-0.232566	0.348961	-0.386623	-0.247291	0.309679	-0.397071	-0.188303	0.294763	-0.392529	-0.177741	0.333300	-0.386635	-0.325816	0.116833	-0.455820	-0.193709	0.032601	-0.388829	-0.163034	0.037905	-0.453668	-0.136883	0.028080	-0.450481	-0.171252	0.769263	-0.741915	-0.151211	0.710997	-0.738726	-0.088974	0.727036	-0.727846	-0.101462	0.785427	-0.730532	-0.220664	0.349833	-0.731486	-0.239308	0.314137	-0.728845	-0.180758	0.292069	-0.721304	-0.169332	0.334593	-0.725723	-0.335729	0.105103	-0.678570	-0.197728	0.032198	-0.721480	-0.165043	0.036484	-0.651463	-0.141562	0.027957	-0.651544	
